<?xml version="1.0" standalone="no"?>
<!DOCTYPE svg PUBLIC "-//W3C//DTD SVG 20010904//EN"
 "http://www.w3.org/TR/2001/REC-SVG-20010904/DTD/svg10.dtd">
<svg version="1.0" xmlns="http://www.w3.org/2000/svg"
 width="848.000000pt" height="848.000000pt" viewBox="0 0 848.000000 848.000000"
 preserveAspectRatio="xMidYMid meet">
<metadata>
Created by potrace 1.14, written by Peter Selinger 2001-2017
</metadata>
<g transform="translate(0.000000,848.000000) scale(0.100000,-0.100000)"
fill="#000000" stroke="none">
<path d="M319 7125 c-3 -2 -20 -7 -38 -10 -19 -3 -42 -10 -52 -16 -11 -5 -19
-7 -19 -4 0 4 -7 -1 -16 -10 -9 -9 -27 -23 -39 -31 -39 -26 -70 -102 -70 -174
0 -61 5 -75 74 -210 40 -80 82 -160 93 -177 11 -18 17 -33 13 -33 -3 0 3 -13
14 -29 12 -16 21 -31 21 -34 0 -3 59 -126 131 -274 72 -147 172 -351 221 -453
242 -502 704 -1431 850 -1710 153 -292 192 -365 270 -503 21 -38 38 -70 38
-72 0 -2 41 -74 90 -161 50 -86 90 -160 90 -164 0 -5 4 -10 8 -12 5 -1 23 -30
42 -63 50 -89 264 -420 304 -470 9 -11 35 -45 58 -75 63 -81 123 -146 202
-215 109 -96 271 -134 405 -96 56 16 145 73 190 120 39 42 109 148 135 205 34
73 75 176 70 176 -2 0 2 13 11 30 8 16 15 31 15 32 -1 2 1 10 4 18 3 8 10 35
17 60 7 25 14 50 15 55 30 105 73 282 90 365 3 14 9 41 14 60 5 19 12 50 15
69 3 19 8 37 10 41 2 4 7 22 10 41 7 44 93 386 104 419 5 14 12 34 16 45 6 18
9 15 31 -20 66 -109 200 -395 364 -780 40 -93 81 -189 91 -212 10 -24 19 -45
19 -48 0 -3 9 -24 19 -48 61 -134 121 -275 121 -285 0 -7 5 -12 10 -12 6 0 10
-6 10 -14 0 -18 145 -319 172 -358 11 -16 17 -28 14 -28 -6 0 11 -29 93 -155
55 -84 173 -206 221 -228 90 -41 112 -46 183 -43 116 4 208 60 277 167 35 55
83 179 95 250 3 19 10 52 15 74 5 22 12 63 15 90 4 28 8 61 10 75 2 14 6 48 9
75 3 28 8 70 11 95 3 25 7 79 10 120 2 41 7 109 10 150 9 131 22 445 30 714 2
88 8 163 13 168 4 4 20 1 35 -7 15 -7 27 -12 27 -9 0 2 17 -3 38 -10 48 -19
270 -76 430 -111 12 -3 63 -16 112 -29 50 -14 90 -22 90 -20 0 3 10 0 21 -7
12 -6 36 -13 53 -16 17 -3 98 -27 180 -54 145 -47 270 -107 279 -132 4 -12 -8
-80 -20 -107 -3 -8 -7 -20 -8 -26 -4 -15 -91 -191 -125 -251 -32 -57 -158
-249 -214 -328 -57 -80 -60 -84 -153 -210 -92 -125 -110 -148 -130 -170 -7 -8
-13 -17 -13 -20 0 -6 -61 -85 -87 -113 -7 -7 -20 -26 -30 -42 -9 -17 -21 -30
-25 -30 -4 0 -8 -4 -8 -9 0 -6 -25 -45 -56 -88 -68 -93 -92 -144 -98 -204 -8
-92 45 -188 127 -231 63 -34 167 -32 227 4 50 30 59 39 113 121 37 57 142 201
166 228 26 30 351 473 387 527 21 31 41 59 46 60 4 2 8 8 8 13 0 5 15 31 33
57 125 178 282 489 313 617 75 308 0 497 -256 652 -92 55 -246 119 -385 159
-27 8 -57 16 -65 19 -31 9 -206 56 -224 60 -82 18 -206 48 -226 56 -14 5 -38
11 -55 14 -63 11 -79 15 -89 25 -5 5 -7 10 -4 10 3 0 113 27 244 59 132 33
291 72 354 87 63 14 151 35 195 45 44 11 89 22 100 24 11 3 112 28 225 56 113
28 210 52 215 53 109 26 461 139 507 162 15 8 29 14 30 14 5 -2 43 11 60 21
10 5 25 9 33 9 8 0 15 5 15 12 0 6 3 9 6 6 7 -7 116 50 193 101 75 49 161 137
191 196 14 27 25 51 26 54 0 3 6 25 13 48 14 51 8 168 -13 235 -34 108 -132
278 -243 418 -24 30 -47 60 -51 65 -55 71 -177 202 -316 340 -157 156 -208
204 -351 325 -74 62 -84 71 -147 120 -32 25 -58 48 -58 52 0 5 -5 8 -10 8 -9
0 -99 64 -163 116 -9 8 -20 14 -23 14 -5 0 -28 17 -81 60 -7 6 -15 10 -18 10
-3 0 -43 25 -89 55 -46 30 -88 55 -94 55 -6 0 -12 3 -14 8 -3 7 -22 18 -153
86 -143 75 -347 153 -445 171 -116 20 -244 25 -326 12 -97 -15 -235 -88 -299
-158 -43 -46 -95 -122 -95 -136 0 -7 -4 -13 -10 -13 -5 0 -10 -6 -10 -13 0 -7
-9 -31 -19 -53 -17 -35 -57 -146 -66 -184 -37 -153 -55 -239 -65 -300 -7 -41
-14 -82 -15 -90 -1 -8 -6 -40 -10 -70 -3 -30 -8 -66 -10 -80 -4 -30 -14 -117
-20 -185 -3 -27 -8 -75 -11 -105 -3 -30 -7 -82 -9 -115 -2 -33 -6 -91 -9 -130
-8 -99 -23 -393 -31 -585 -6 -146 -15 -460 -20 -680 -21 -881 -37 -1324 -59
-1590 -13 -158 -14 -177 -21 -234 -10 -82 -10 -85 -16 -91 -8 -7 -171 332
-261 545 -22 52 -48 113 -58 135 -10 22 -55 128 -100 235 -45 107 -89 211 -97
230 -9 19 -24 53 -33 75 -10 22 -30 69 -46 105 -66 151 -228 462 -284 548 -83
125 -179 221 -261 260 -70 33 -157 45 -218 30 -20 -5 -43 -10 -52 -13 -63 -14
-181 -124 -221 -205 -13 -25 -28 -52 -34 -60 -9 -13 -58 -135 -59 -150 -1 -3
-11 -34 -22 -70 -28 -82 -119 -442 -139 -545 -3 -17 -42 -185 -59 -260 -3 -11
-7 -31 -10 -45 -2 -14 -18 -72 -35 -130 -17 -58 -32 -112 -34 -120 -16 -56
-52 -152 -72 -193 l-25 -48 -45 53 c-59 68 -140 177 -190 253 -21 33 -42 62
-46 63 -5 2 -8 7 -8 12 0 4 -38 68 -83 141 -46 74 -95 154 -109 179 -14 25
-50 89 -81 142 -56 97 -72 126 -199 363 -39 72 -85 157 -103 190 -26 48 -233
450 -278 540 -6 11 -14 27 -18 35 -129 255 -222 446 -221 452 1 3 -5 12 -13
18 -8 7 -15 16 -15 21 0 4 -59 128 -131 276 -132 268 -236 483 -376 773 -175
362 -399 809 -429 856 -51 81 -95 115 -167 128 -15 2 -31 7 -35 10 -5 3 -11 4
-13 1z m5726 -506 c137 -35 370 -149 574 -282 135 -89 293 -204 299 -219 2 -4
8 -8 14 -8 8 0 71 -48 124 -95 6 -5 38 -32 70 -60 182 -155 452 -425 575 -575
83 -101 179 -239 179 -257 0 -5 6 -15 13 -22 21 -21 14 -35 -31 -63 -23 -16
-45 -28 -48 -28 -3 0 -26 -10 -52 -21 -66 -30 -131 -58 -140 -60 -4 -1 -17 -5
-30 -10 -13 -5 -35 -12 -50 -15 -15 -4 -33 -11 -39 -17 -7 -5 -13 -7 -13 -4 0
4 -19 -1 -42 -9 -112 -40 -573 -159 -933 -241 -38 -8 -115 -27 -170 -40 -55
-14 -108 -27 -118 -29 -10 -2 -26 -5 -35 -8 -9 -3 -28 -7 -42 -10 -14 -3 -52
-13 -85 -22 -33 -9 -68 -18 -77 -20 -10 -2 -26 -6 -35 -8 -44 -10 -204 -57
-258 -76 -33 -11 -68 -22 -78 -25 -9 -2 -22 -7 -28 -10 -18 -12 13 790 46
1200 9 114 16 184 20 215 3 19 7 58 10 85 8 82 17 159 21 180 3 11 7 36 10 55
21 139 78 377 95 395 5 5 9 16 9 25 0 26 48 88 72 93 30 6 122 -1 173 -14z"/>
</g>
</svg>
