<svg width="253" height="214" viewBox="0 0 253 214" fill="none" xmlns="http://www.w3.org/2000/svg">
<g clip-path="url(#clip0_15_392)">
<path d="M140.158 186.549V200.143L150.44 200.475L150.012 186.549H140.158Z" fill="#FFB6B6"/>
<path d="M138.123 194.113C137.984 194.113 137.848 194.131 137.716 194.168C135.86 194.698 125.119 204.285 121.871 207.211C121.469 207.572 121.256 208.088 121.286 208.626C121.315 209.163 121.582 209.65 122.017 209.963C124.481 211.737 129.527 214.542 135.65 213.409C138.466 212.887 141.309 212.559 143.816 212.27C149.185 211.65 153.425 211.161 153.425 209.261C153.425 206.038 152.538 197.542 151.425 197.185C151.324 197.155 151.207 197.233 151.073 197.421C149.37 199.804 143.521 198.536 143.273 198.481L143.208 198.467L143.171 198.411C143.14 198.366 140.277 194.113 138.123 194.113Z" fill="#2F2E41"/>
<path d="M120.92 186.549V200.143L131.202 200.475L130.774 186.549H120.92Z" fill="#FFB6B6"/>
<path d="M116.774 89.2325L111.301 93.3771L110.306 140.129L119.593 191.191L131.7 191.688L132.031 142.947L147.621 98.5164L144.47 88.072L116.774 89.2325Z" fill="#2F2E41"/>
<path d="M142.314 97.1902L147.621 98.5165L151.435 191.191L137.67 190.03L128.549 124.545L142.314 97.1902Z" fill="#2F2E41"/>
<path d="M113.579 214C108.86 214 105.027 211.915 102.979 210.509C102.36 210.085 101.978 209.41 101.929 208.66C101.879 207.902 102.175 207.177 102.739 206.669C107.821 202.099 116.612 194.356 118.387 193.85C120.687 193.191 123.774 197.588 124.171 198.171C124.813 198.303 130.079 199.308 131.565 197.228C131.848 196.832 132.114 196.814 132.289 196.87C133.876 197.378 134.519 207.597 134.519 209.261C134.519 211.457 130.366 211.936 124.617 212.599C122.114 212.888 119.278 213.215 116.472 213.735C115.478 213.919 114.511 214 113.579 214Z" fill="#2F2E41"/>
<path d="M74.7899 28.746C73.0329 24.8659 73.6941 20.8037 76.2663 19.6729C78.8386 18.5422 82.3473 20.771 84.1044 24.6527C84.8284 26.1935 85.1575 27.8871 85.064 29.5917L92.2922 46.1269L84.1399 49.3981L77.8796 32.7501C76.5294 31.6798 75.47 30.3068 74.7899 28.746Z" fill="#FFB6B6"/>
<path d="M124.744 35.7669C129.151 39.9208 128.875 47.0081 124.159 50.807L101.062 69.4104C98.5409 71.4408 94.7998 70.7234 93.2095 67.9047C87.1397 58.0814 85.9954 57.5427 82.4677 47.4748L92.4162 43.9961L98.0255 51.0174L110.272 36.575C113.974 32.2101 120.58 31.8412 124.744 35.7669Z" fill="#E036A9"/>
<path d="M128.146 28.6782L131.924 36.2866L117.645 43.1803L117.82 30.9832L128.146 28.6782Z" fill="#FFB6B6"/>
<path d="M116.787 41.5989L128.723 34C137.478 40.6144 144.768 42.1619 145 53.6791L143.387 81.1519L143.481 92.9837C143.521 97.9506 139.794 102 135.184 102H118.14C113.629 102 110.269 97.5166 111.218 92.7661L114.436 76.6705L111 45.3009L116.787 41.5989Z" fill="#E036A9"/>
<path d="M51.0435 19.2184C51.0435 18.5456 51.5891 18 52.2623 18H65.9927C66.6659 18 67.2116 18.5455 67.2116 19.2184V19.3845L101.075 21.3648C101.174 20.9797 101.52 20.6938 101.935 20.6938H105.536C105.536 20.1072 104.803 20.6458 105.39 20.6458L104.864 25.6388L105.39 20.6938C105.39 20.3228 105.165 22.6458 105.536 22.6458L105.434 20.5587C105.806 20.5587 108.258 22.9465 108.258 23.3174V25.6388H108.932C108.884 25.5451 108.856 25.4447 108.856 25.3395C108.856 24.8436 109.437 24.4416 110.154 24.4416C110.87 24.4416 105.39 20.1498 105.39 20.6458C105.803 20.7914 105.536 20.2312 105.536 20.6938L114.42 24.2774C114.42 24.864 113.944 25.3395 113.357 25.3395H106.5C105.913 25.3395 105.438 24.864 105.438 24.2774L105.536 29.8726H101.935C101.472 29.8726 101.096 29.5172 101.053 29.0649L67.1559 35.3046C67.0007 35.7992 66.5387 36.158 65.9927 36.158H52.2623C51.5892 36.158 51.0435 35.6126 51.0435 34.9397C50.8809 29.375 51.2411 24.0884 51.0435 19.2184Z" fill="#3F3D56"/>
<path d="M117.696 34.4337C124.792 34.4337 130.545 28.6833 130.545 21.5899C130.545 14.4964 124.792 8.74603 117.696 8.74603C110.6 8.74603 104.848 14.4964 104.848 21.5899C104.848 28.6833 110.6 34.4337 117.696 34.4337Z" fill="#FFB6B6"/>
<path d="M92.9333 31.3328C91.2219 27.4324 91.9305 23.3782 94.5159 22.2776C97.1012 21.1771 100.584 23.4468 102.295 27.3488C103.001 28.898 103.31 30.5953 103.197 32.2987L110.231 48.9174L102.041 52.093L95.9758 35.3728C94.6383 34.2867 93.595 32.9014 92.9333 31.3328Z" fill="#FFB6B6"/>
<path d="M140.756 36.8012C145.113 41.0065 144.754 48.0901 139.994 51.8335L116.68 70.1652C114.136 72.1659 110.403 71.4048 108.846 68.5677C102.892 58.6739 102.41 60.0191 99 49.9107L108.182 44.124L113.86 51.7379L126.275 37.4399C130.027 33.1186 136.637 32.8271 140.756 36.8012Z" fill="#E036A9"/>
<path d="M130.909 28.0522L128.533 29.7535C128.533 29.7535 127.834 22.3388 126.87 22.0098C125.905 21.6808 124.604 23.3897 124.604 23.3897L123.654 26.1732L120.511 24.8639C120.511 24.8639 116.873 22.905 115.587 22.4663C114.301 22.0275 114.496 18.3025 114.496 18.3025C114.496 18.3025 99.0584 20.4154 101.378 11.5189C101.378 11.5189 102.176 4.97404 103.886 6.27487C105.595 7.57569 105.618 4.35427 105.618 4.35427L109.492 3.5228C109.492 3.5228 114.806 -3.63418 125.29 2.45423C135.774 8.54263 130.909 28.0522 130.909 28.0522Z" fill="#2F2E41"/>
<path d="M0 213.411C0 213.639 0.183276 213.823 0.411504 213.823H252.589C252.817 213.823 253 213.639 253 213.411C253 213.183 252.817 213 252.589 213H0.411504C0.183276 213 0 213.183 0 213.411Z" fill="#3F3D56"/>
</g>
<defs>
<clipPath id="clip0_15_392">
<rect width="253" height="214" fill="white"/>
</clipPath>
</defs>
</svg>
